<svg width="514" height="476" viewBox="0 0 514 476" fill="none" xmlns="http://www.w3.org/2000/svg">
<path d="M254.5 0.0189586C339.8 -0.0810413 395 0.218764 403.5 0.818763C410.9 1.41876 421.5 2.81935 427 3.91935C432.5 5.01934 440.4 7.31877 444.5 8.81876C448.6 10.4188 456 14.119 461 17.019C467.1 20.6189 473 25.319 479.6 31.8188C484.899 37.0186 491.2 44.2187 493.5 47.8188C495.9 51.4187 499.8 58.4188 502.2 63.3188C504.5 68.2187 507.6 76.8187 509 82.3188C510.4 87.8186 512 97.0187 512.6 102.819C513.3 109.819 513.5 156.819 513.2 243.819C512.9 362.517 512.7 375.119 511.1 382.819C510.2 387.519 508.1 395.22 506.5 400.12C504.8 404.92 502.1 411.62 500.4 415.12C498.6 418.52 495.1 424.419 492.6 428.319C490.1 432.219 484.4 438.919 480 443.419C475.6 447.819 469.3 453.319 466 455.519C462.7 457.719 456.9 461.119 453 463.019C449.1 465.019 442.3 467.719 437.7 469.219C433.2 470.619 425.3 472.619 420.3 473.519C411.8 475.119 397.699 475.32 264 475.62C163.4 475.82 113.2 475.619 105 474.819C98.4 474.219 89.2 472.919 84.5 471.719C79.8 470.619 73.6002 468.819 70.7002 467.819C67.9002 466.719 62.6998 464.419 59.2998 462.719C55.7998 460.919 50.5 457.819 47.5 455.819C44.5 453.719 39.5 449.819 36.5 447.12C33.5 444.32 28.3998 438.819 25.2998 434.719C22.1998 430.619 17.5 423.719 15 419.319C12.5001 414.919 9.10002 407.619 7.5 403.12C5.8 398.52 3.5 390.219 0 374.319V236.819C1.93867e-07 108.419 0.0998063 98.7188 1.7998 90.8188C2.79982 86.1188 4.70003 78.9187 6 74.8188C7.40003 70.7188 9.99985 64.4187 11.7998 60.8188C13.5998 57.2187 17.0997 51.2187 19.5996 47.3188C22.1996 43.5188 27.5996 36.9187 31.5996 32.8188C35.6996 28.6188 41.9 23.3188 45.5 20.8188C49.1 18.4188 56.1001 14.5195 61 12.1195C65.9 9.81955 74.3 6.81936 79.5 5.41935C84.7 4.11935 93.5 2.51935 99 1.91935C104.5 1.31935 111.2 0.618959 114 0.518959C116.7 0.318959 180 0.118958 254.5 0.0189586ZM256.1 92.8207C248.6 92.8207 242.2 93.1209 241.7 93.5209C241.2 93.8209 240.9 101.521 241 110.521L241.2 126.821C236.9 128.621 231.2 131.22 225.7 133.92C219.3 136.92 213.5 140.621 209.8 144.021C206.5 146.921 202.1 152.021 200 155.321C197.8 158.621 195.1 164.421 193.9 168.321C192.2 173.821 191.8 177.721 191.8 186.821C191.9 196.021 192.3 199.621 194.2 204.821C195.4 208.421 198 213.821 200.1 216.721C202.1 219.721 206.2 224.221 209.2 226.521C212.2 228.921 217.8 232.421 221.7 234.321C225.6 236.221 234.6 239.321 241.7 241.321C248.8 243.321 258.5 246.121 263.2 247.521C267.9 248.921 273.7 251.021 276.2 252.321C278.7 253.521 282.3 256.32 284.3 258.42C286.2 260.62 288.4 264.121 289.2 266.321C290 268.721 290.3 272.721 290 276.321C289.7 279.621 288.6 284.121 287.4 286.321C286.3 288.521 283.9 291.721 282 293.521C280.2 295.221 276.7 297.521 274.2 298.521C270.7 299.921 267 300.321 257.2 300.321C246.5 300.321 243.8 300.02 238.2 297.92C234.6 296.62 229.2 293.92 226.2 291.92C223.1 289.92 219.1 285.821 216.7 282.621C214.5 279.521 212 276.921 211.2 276.821C210.4 276.821 205 280.121 199.2 284.121C193.4 288.22 188.1 292.22 187.5 293.121C186.4 294.521 186.7 295.621 188.9 299.621C190.3 302.221 195.1 307.921 199.6 312.321C206.1 318.821 209.5 321.321 217.2 325.121C222.4 327.621 230 330.521 234 331.521L241.2 333.321C241.2 360.921 241.5 365.621 242.4 366.621C243.301 367.52 247.5 367.821 256.8 367.821C265.9 367.821 270.2 367.421 271 366.621C271.9 365.72 272.2 360.42 272.2 348.821V332.321C280.3 330.121 286.1 327.821 290.2 325.721C295.1 323.321 300.5 319.42 305.6 314.621C311.5 309.121 314.2 305.621 316.8 300.321C318.9 296.221 320.9 289.821 321.8 284.821C322.8 279.221 323.2 273.521 322.8 268.121C322.5 263.521 321.3 257.02 320.1 253.621C319 250.121 316.6 245.12 314.9 242.42C313.1 239.72 309 235.021 305.7 232.021C302.1 228.821 296.1 224.921 290.7 222.321C285.7 219.921 273.8 215.621 264.2 212.821C254.6 209.921 244 206.321 240.7 204.621C237.4 203.021 233.6 200.721 232.3 199.521C231 198.321 229.1 195.521 228.1 193.321C226.9 190.821 226.2 187.021 226.2 183.321C226.2 179.621 226.9 175.821 228.1 173.321C229.1 171.121 231.2 168.121 232.8 166.621C234.4 165.121 237.9 162.921 240.7 161.621C244.9 159.721 247.4 159.321 256.2 159.321C265.9 159.321 267.2 159.52 273.2 162.42C276.8 164.12 281.4 167.32 283.5 169.42C285.6 171.62 288.7 175.421 290.3 178.121C291.9 180.721 293.7 182.821 294.2 182.821C294.701 182.82 300.501 179.72 306.9 175.821C313.4 172.021 319.3 168.921 319.9 168.821C320.6 168.82 321.2 168.22 321.2 167.621C321.2 166.92 319.5 163.421 317.5 159.821C315.4 156.321 310.8 150.421 307.2 146.821C303.6 143.221 297.7 138.621 294.2 136.521C290.6 134.521 284.2 131.721 279.9 130.321L272.2 127.821C272.2 99.8222 271.9 95.0213 271 94.0209C270.1 93.1209 265.8 92.8207 256.1 92.8207ZM161.1 106.821C137.6 106.921 132.4 107.321 129.2 108.521C126.7 109.421 123.1 111.121 121.2 112.321C119.3 113.521 116.2 116.22 114.3 118.42C112.4 120.52 109.7 124.821 108.3 127.821L105.7 133.321C104.7 206.821 104.6 208.421 102.6 211.821C101.4 213.721 98.8995 216.321 97.0996 217.521C95.1995 218.721 91.2 220.02 88.2002 220.42C85.2003 220.82 81.9002 221.52 81 221.92C79.4 222.72 79.2 224.321 79.5 235.521L79.501 235.569C79.7002 248.121 79.7034 248.322 82.2002 249.021C83.6003 249.421 86.7004 250.021 89.2002 250.321C91.7001 250.521 95.1996 251.821 97.0996 253.021C98.9996 254.321 101.5 256.921 102.6 258.821C104.6 262.121 104.7 264.221 105.2 300.321L105.7 338.321C109.6 346.821 112.8 351.521 115.2 354.121C117.7 356.821 122.2 360.221 125.2 361.621C130.3 364.12 131.7 364.321 146 364.621L161.2 364.821V336.821C148 336.821 144.7 336.321 142.3 335.021C140.4 334.121 137.9 332.021 136.8 330.521C134.8 327.821 134.7 326.121 134.2 292.521L133.7 257.321C129.6 248.821 126.6 244.721 124.5 242.821C122.4 240.921 119.3 238.321 117.7 237.021L114.7 234.821C119.3 231.321 122.4 228.721 124.5 226.821C126.6 224.921 129.6 220.821 131 217.821L133.7 212.321C134.7 149.821 135 144.821 136.5 141.621C137.5 139.321 139.5 137.121 141.4 136.121C143.201 135.221 148.3 134.22 152.7 133.92L160.7 133.321L161.1 106.821ZM352.1 106.821L352.4 120.121L352.7 133.321C365.1 134.221 370.1 135.221 371.7 136.021C373.6 136.921 375.4 139.121 376.5 141.721C378 145.321 378.2 149.522 378.2 176.121C378.2 201.221 378.5 207.221 379.8 211.821C380.7 214.821 382.5 218.921 383.7 220.821C384.9 222.721 387.7 225.921 389.8 227.821C392 229.721 394.8 232.121 396.2 233.121L398.7 234.821C394.8 237.521 392 239.921 389.8 241.821C387.7 243.721 384.8 247.021 383.6 249.121C382.3 251.121 380.5 255.421 379.7 258.621C378.5 263.121 378.2 270.921 378.2 295.321C378.2 322.82 378 326.721 376.4 329.821C375.4 331.821 373.2 334.021 371.2 335.021C368.8 336.321 365.3 336.821 360 336.821H352.2L352.7 364.321C381.6 364.321 381.8 364.321 388.5 361.121C392.967 358.921 396.333 356.42 398.6 353.621C400.4 351.221 402.7 347.721 403.7 345.821C404.7 343.921 406 340.921 406.5 339.321C407.1 337.621 407.8 320.421 408.1 298.621C408.7 262.421 408.8 260.821 410.8 258.121C411.9 256.621 414.4 254.321 416.3 253.021C418.2 251.821 421.7 250.521 424.2 250.221C426.7 249.921 429.7 249.321 431 248.721C433.1 247.821 433.2 247.321 433.2 235.321C433.2 223.321 433.1 222.82 431 221.92C429.7 221.32 426.7 220.72 424.2 220.42C421.7 220.12 418.2 218.821 416.3 217.621C414.4 216.321 411.9 214.021 410.8 212.521C408.8 209.821 408.7 208.221 408.1 172.521C407.8 148.622 407.1 134.021 406.4 131.821C405.8 129.921 403.8 125.821 402 122.821C400.2 119.821 396.5 115.721 393.7 113.621C391 111.521 386.5 109.121 383.7 108.321C380.3 107.321 374.3 106.821 365.4 106.821H352.1Z" fill="#31946D"/>
</svg>
