<svg width="778" height="660" viewBox="0 0 778 660" fill="none" xmlns="http://www.w3.org/2000/svg">
<path d="M138.6 560.1C142.399 560.1 147.599 560.5 150.1 561.1C152.5 561.7 156.8 563.201 159.6 564.5C162.3 565.8 167 569 170.1 571.8C173.1 574.5 176.9 579.3 178.7 582.6C180.4 585.8 182.6 591.001 183.5 594C184.4 597.001 185.4 603.201 186.6 616H117.1V619.2C117.1 621 118 624.5 119.1 627C120.3 629.5 121.9 632.3 122.9 633.4C123.8 634.4 126.4 636.2 128.6 637.3C131.6 638.9 134.4 639.4 140.1 639.4C145.8 639.4 148.5 638.9 151.8 637.2C154.1 636 157.1 633.6 160.6 628.9L183.1 632L182 634.7C181.4 636.3 179.6 639.3 178.1 641.5C176.6 643.7 173.3 647.3 170.9 649.4C168.5 651.6 164.3 654.4 161.6 655.7C158.8 656.9 152.9 658.5 148.6 659.2C142.3 660.1 138.799 660.1 132.6 659.2C128.1 658.5 121.9 656.7 118.6 655.1C115.2 653.6 110.1 650.1 107.1 647.3C104 644.6 100.1 639.6 98.4004 636.4C96.6004 633.2 94.4997 627.801 93.5996 624.5C92.6996 621.2 92 615 92 610.7C92 606.5 92.5002 600.6 93.2002 597.7C93.8002 594.9 95.4998 589.8 97.0996 586.5C98.5996 583.201 102.1 578.001 104.8 575C107.6 572 112.2 568.1 115.2 566.3C118.1 564.5 123 562.4 126.1 561.6C129.1 560.8 134.7 560.1 138.6 560.1ZM241.8 560.1C245.2 560 250.4 560.5 253.3 561.1C256.2 561.7 261.2 563.6 264.6 565.3C267.9 567 272.7 570.6 275.4 573.4C278.1 576.2 281.6 581.1 283.2 584.2C284.8 587.4 286.7 592.8 287.5 596.2C288.4 599.7 289 605.5 289.1 616H221.1V619.2C221.1 621 222 624.5 223.1 627C224.3 629.5 225.9 632.3 226.9 633.4C227.8 634.4 230.4 636.1 232.6 637.3C235.4 638.7 238.5 639.3 243.6 639.3C248.8 639.4 251.6 638.8 254.8 637.2C257.1 636 260.1 633.6 263.6 628.9L274.8 630.4C282.199 631.5 286.098 632.4 286.1 633.2C286.1 633.9 284.2 637.4 281.8 640.9C279.2 644.9 275.4 648.8 272.1 651.2C269 653.3 263.9 655.9 260.6 656.9C257.2 657.9 251.9 659.1 248.6 659.4C245.2 659.8 239.399 659.6 235.6 659C231.7 658.4 225.9 656.7 222.6 655.1C219.2 653.6 214.1 650.1 211.1 647.3C208 644.6 204.1 639.6 202.4 636.4C200.6 633.2 198.5 627.801 197.6 624.5C196.7 621.201 196 614.9 196 610.5C196 606.101 196.7 599.801 197.6 596.5C198.5 593.2 200.4 588.1 201.9 585.1C203.3 582.2 206.6 577.5 209.2 574.6C211.7 571.8 216.2 568.1 219.2 566.3C222.1 564.5 227 562.4 230.1 561.6C233.1 560.8 238.4 560.1 241.8 560.1ZM636 560.2C636.8 560.1 640.8 560.5 645 561C649.5 561.6 654.8 563.1 658.5 564.9C662.1 566.7 666.1 569.7 668.7 572.6C671.1 575.3 673.7 579.4 674.5 581.7C675.6 585.099 675.7 586.1 674.7 586.4C674 586.7 669.4 587.6 664.5 588.4C659.5 589.2 655.3 589.6 655.2 589.2C655.1 588.799 654.001 587.001 652.901 585.203L652.9 585.2C651.8 583.5 649.3 581.3 647.2 580.4C644.5 579.2 641.3 578.9 635.8 579.1C629.9 579.4 627.7 580.001 625.9 581.5C624.7 582.6 623.3 584.5 622.8 585.7C622.2 587.3 622.4 589.1 623.5 591.5C624.5 593.9 626.1 595.5 628.7 596.6C630.8 597.5 637.4 599.3 643.5 600.7C649.5 602 656.7 603.8 659.5 604.6C662.2 605.3 666.6 607.3 669.2 609C672.7 611.2 674.6 613.4 676.4 617.2C678.2 621 678.9 624.2 678.9 628.5C678.9 631.8 678.4 636.3 677.7 638.4C677 640.5 674.9 644.1 673 646.3C671 648.5 667.9 651.301 666 652.5C664 653.7 660.5 655.4 658.2 656.3C655.9 657.2 650.2 658.5 645.7 659C640.3 659.7 634.9 659.7 630 659C625.8 658.5 620.9 657.6 619 657C617 656.5 613 654.6 610 652.8C606.7 650.8 603.2 647.7 601.4 645C599.7 642.501 597.8 638 597.1 635C596.4 632.002 595.901 629.403 596.1 629.4C596.3 629.3 601.2 628.9 607 628.5C617.4 627.8 617.5 627.8 618.1 630.1C618.5 631.4 620.4 634 622.4 635.7C624.3 637.5 627.9 639.5 630.2 640.1C632.5 640.7 637.4 641 641 640.8C644.5 640.6 648.8 639.8 650.4 639C652 638.2 654.1 636.3 654.9 634.8C656.1 632.8 656.2 631.4 655.5 629.4C654.9 627.9 653.1 625.8 651.5 624.8C649.8 623.9 642.6 621.8 635.5 620.1C628.3 618.5 619.7 616.1 616.5 614.9C612.5 613.4 608.9 611.1 605.9 608.1C602.6 604.8 601 602.1 600.1 598.7C599.5 596.1 598.9 592.5 598.9 590.7C598.9 589 599.6 585.2 600.4 582.5C601.3 579.401 603.5 575.6 606.2 572.5C609.1 569.301 612.7 566.5 616.5 564.8C619.8 563.3 625.2 561.6 628.5 561.1C631.7 560.6 635.1 560.2 636 560.2ZM430.5 527.1C438.6 527 443.6 527.5 449.5 529C453.9 530.2 460.2 532.5 463.5 534.3C466.7 536.1 471.8 539.701 474.6 542.5C478 545.8 481 550 483.3 555C485.3 559.1 487.2 564.501 488.2 571.5L461.5 572.1L460.3 568.3C459.6 566.2 457.4 562.5 455.3 560.1C453.2 557.7 449.3 554.6 446.5 553.2C443 551.4 439.3 550.5 434 550.2C428.6 549.9 424.9 550.2 421 551.4C418 552.4 413.5 554.6 411 556.4C408.5 558.2 405 561.8 403.2 564.6C401.4 567.3 399 572 397.9 575C396.6 578.301 395.6 584.001 395.3 589C395 593.7 395.3 600.201 395.9 603.5C396.5 606.801 398.4 612.401 400.1 616C402.1 620.2 404.9 624.2 408.3 627.3C411.3 630.1 415.7 632.9 418.8 634.1C422.2 635.3 426.6 636 431.5 636C436.8 636 440.7 635.4 444.8 633.8C448.4 632.4 452.2 630 455.1 627.1C457.9 624.3 459.9 621.2 461 616H488L487.5 619.7C487.2 621.8 485.5 626.4 483.8 630C481.8 634.2 478.499 638.701 474.6 642.5C471.2 645.9 465.4 650.1 461.5 652.2C457.6 654.2 451.6 656.6 448 657.5C444.1 658.6 437.5 659.3 431.5 659.3C426 659.4 418.8 658.8 415.5 658.1C412.2 657.4 405.8 655.1 401.2 652.9C395.1 650 391.2 647.3 386.2 642.2C381.3 637.4 378.3 633.4 375.7 628C373.7 623.901 371.3 617.401 370.3 613.5C369.1 608.601 368.6 602.5 368.6 593.5C368.6 584.501 369.1 578.5 370.3 574C371.2 570.401 373.9 563.7 376.2 559C379.2 552.8 382.2 548.7 386.9 543.9C391.3 539.5 396 536.2 401 533.6C405.1 531.6 411 529.301 414 528.5C417 527.8 424.5 527.1 430.5 527.1ZM542.6 560.1C546.399 560.1 552.5 560.7 556.1 561.6C559.6 562.4 564.8 564.3 567.4 565.8C570.1 567.3 574.3 570.701 576.7 573.5C579.2 576.201 581.9 580.501 582.8 583C584.2 586.801 584.5 592.802 585.1 657H561.1V651.5C561.1 648.5 560.9 646 560.8 646C560.697 646.003 558.198 648.202 555.3 651C551.5 654.6 548.6 656.401 544.8 657.5C541.9 658.3 535.999 659 531.6 659C527.2 659 521.3 658.4 518.6 657.6C515.8 656.8 511.5 654.7 509.1 652.8C506.2 650.7 503.6 647.5 501.8 644C499.6 639.601 499 637.1 499 632C499.1 627.301 499.7 624.1 501.4 620.5C502.7 617.7 505.4 614 507.4 612.2C509.4 610.5 512.8 608.101 515.1 607C517.3 605.901 521.6 604.301 524.8 603.5C528 602.6 537.3 601.7 560.6 600.7L560.1 595.1C559.8 592 558.8 588.2 557.8 586.7C556.8 585.2 554.299 583.1 552.1 582C549.433 580.667 546.1 580 542.1 580C538.8 580.001 534.8 580.6 533.3 581.4C531.8 582.2 529.6 583.9 528.4 585.2C527.2 586.4 525.7 588.7 525.1 590.2C524.1 592.8 523.7 593 519.8 592.5C517.5 592.3 512.499 591.8 502.1 591L502.7 588.2C503 586.699 504.501 582.8 505.9 579.6C507.4 576.2 510.2 572.2 512.6 570.2C514.8 568.2 518.8 565.6 521.6 564.3C524.3 563.1 528.6 561.6 531 561.1H531.1C533.5 560.6 538.7 560.2 542.6 560.1ZM334.9 562H357.9V583H334.9L335.2 606.3C335.4 626.5 335.7 629.9 337.2 632.3C338.2 633.8 340.6 635.7 342.7 636.6C345.2 637.7 348.501 638.1 358.9 637.5V657L353.2 657.7C350 658.2 344.1 658.5 339.9 658.4C334.6 658.4 331 657.7 327.5 656.2C324.7 655 320.8 652.3 318.7 650.3C316.7 648.2 314.2 644.701 313.3 642.5C311.7 639 311.4 634.9 311 583H295V562H310.9L311 550.5L310.9 539H335.4L334.9 562ZM27 634H84V657.5L1 657L0.700195 592.5L0.5 528H27V634ZM715 549.5C715 562.4 715.2 573 715.5 573C715.8 573 716.9 571.9 718 570.5C719.1 569.1 723 566.5 726.7 564.8C732.2 562.2 735.1 561.5 741.5 561.1C747.1 560.9 751.3 561.3 755.5 562.5C758.8 563.401 763.3 565.5 765.5 567.1C767.7 568.8 770.8 572 772.3 574.3C773.8 576.6 775.8 580.701 776.6 583.5C777.7 587.501 778 595.702 778 657.5L755 657L754.8 626.7C754.5 599.8 754.3 596 752.6 592.2C751.6 589.9 749.6 587.1 748.1 586.1C746.699 585 743.5 583.6 741 583C737.4 582 735.4 582.1 731 583.1C728 583.8 724.2 585.6 722.6 587C721 588.401 718.8 591.301 717.6 593.5C715.6 597.3 715.5 599.203 714.9 657.5L690 657V526H715V549.5ZM560 616.098C545.7 616.198 539 616.698 536 617.098C533 617.598 529.5 618.699 528.3 619.499C527 620.399 525.3 622.498 524.4 624.298C523.334 626.432 522.967 628.865 523.3 631.598C523.7 634.098 524.8 636.398 526.5 637.798C527.9 638.998 530.9 640.498 533.3 641.098C536.2 641.898 539 641.898 542.5 641.098C545.3 640.598 549.3 638.798 551.5 637.298C553.7 635.698 556.5 632.499 557.8 629.999C559.1 627.299 560 623.698 560 620.798V616.098ZM244.5 579.399C241.6 579.199 237.9 579.599 235.5 580.499C233.3 581.299 230 583.498 228.2 585.298C226.4 587.098 224.1 590.998 223.1 594.098L221.2 599.598C253.6 599.998 263.2 599.998 263.5 599.798C263.7 599.698 263.5 597.498 262.9 595.098C262.4 592.598 260.9 589.098 259.7 587.298C258.5 585.598 255.7 583.099 253.5 581.899C251.3 580.699 247.3 579.599 244.5 579.399ZM138.3 579.098C136.8 579.098 133.7 579.799 131.5 580.499C129.2 581.299 125.9 583.799 123.7 586.199C121.6 588.599 119.3 592.598 118.6 595.098L117.3 599.598C149.695 599.998 159.397 599.798 159.8 599.499C160.2 599.199 159.7 596.499 158.8 593.499C157.8 590.399 155.6 586.598 153.8 584.798C151.8 582.698 148.7 580.998 145.8 580.298C143.2 579.598 139.8 579.098 138.3 579.098Z" fill="black"/>
<path d="M388 0.198707C473.3 0.0987072 528.5 0.398512 537 0.998512C544.4 1.59851 555 2.99812 560.5 4.09812C566 5.19812 573.9 7.49851 578 8.99851C582.1 10.5985 589.5 14.2987 594.5 17.1987C600.6 20.7987 606.5 25.4986 613.1 31.9985C618.4 37.1985 624.7 44.3985 627 47.9985C629.4 51.5985 633.3 58.5985 635.7 63.4985C638 68.3985 641.1 76.9985 642.5 82.4985C643.9 87.9985 645.5 97.1985 646.1 102.999C646.8 109.999 647 156.999 646.7 243.999C646.4 362.698 646.2 375.299 644.6 382.999C643.7 387.698 641.6 395.398 640 400.298C638.3 405.098 635.6 411.798 633.9 415.298C632.1 418.698 628.6 424.599 626.1 428.499C623.6 432.398 617.9 439.098 613.5 443.598C609.1 447.998 602.8 453.499 599.5 455.699C596.2 457.899 590.4 461.299 586.5 463.199C582.6 465.199 575.8 467.899 571.2 469.399C566.7 470.799 558.8 472.799 553.8 473.699C545.3 475.299 531.199 475.498 397.5 475.798C296.9 475.998 246.7 475.798 238.5 474.999C231.9 474.399 222.7 473.099 218 471.899C213.3 470.799 207.1 468.999 204.2 467.999C201.4 466.899 196.2 464.599 192.8 462.899C189.3 461.099 184 457.999 181 455.999C178 453.899 173 449.998 170 447.298C167 444.498 161.9 438.999 158.8 434.899C155.7 430.799 151 423.899 148.5 419.499C146 415.099 142.6 407.798 141 403.298C139.3 398.698 137 390.398 133.5 374.499V236.999C133.5 108.599 133.6 98.8985 135.3 90.9985C136.3 86.2985 138.2 79.0985 139.5 74.9985C140.9 70.8986 143.5 64.5985 145.3 60.9985C147.1 57.3986 150.6 51.3985 153.1 47.4985C155.7 43.6986 161.1 37.0985 165.1 32.9985C169.2 28.7985 175.4 23.4985 179 20.9985C182.6 18.5985 189.6 14.6983 194.5 12.2983C199.4 9.99832 207.8 6.99812 213 5.59812C218.2 4.29812 227 2.69812 232.5 2.09812C238 1.49812 244.7 0.798708 247.5 0.698707C250.2 0.498707 313.5 0.298707 388 0.198707ZM389.6 92.9995C382.101 92.9995 375.702 93.2998 375.2 93.6997C374.7 93.9997 374.4 101.7 374.5 110.7L374.7 126.999C370.4 128.799 364.7 131.4 359.2 134.1C352.8 137.1 347 140.8 343.3 144.2C340 147.1 335.6 152.199 333.5 155.499C331.3 158.799 328.6 164.599 327.4 168.499C325.7 173.999 325.3 177.9 325.3 186.999C325.4 196.199 325.8 199.8 327.7 204.999C328.9 208.599 331.5 214 333.6 216.9C335.6 219.9 339.7 224.4 342.7 226.7C345.7 229.1 351.3 232.599 355.2 234.499C359.1 236.399 368.1 239.499 375.2 241.499C382.3 243.499 392 246.3 396.7 247.7C401.4 249.1 407.2 251.199 409.7 252.499C412.2 253.699 415.8 256.5 417.8 258.6C419.7 260.8 421.9 264.299 422.7 266.499C423.5 268.899 423.8 272.9 423.5 276.499C423.2 279.799 422.1 284.299 420.9 286.499C419.8 288.699 417.4 291.9 415.5 293.7C413.7 295.4 410.2 297.7 407.7 298.7C404.2 300.1 400.5 300.499 390.7 300.499C380 300.499 377.3 300.2 371.7 298.1C368.1 296.8 362.7 294.1 359.7 292.1C356.6 290.1 352.6 286 350.2 282.8C348 279.7 345.5 277.1 344.7 276.999C343.9 276.999 338.5 280.3 332.7 284.3C326.9 288.4 321.6 292.4 321 293.3C319.9 294.7 320.2 295.8 322.4 299.8C323.801 302.4 328.6 308.1 333.1 312.499C339.6 318.999 343 321.5 350.7 325.3C355.9 327.8 363.5 330.7 367.5 331.7L374.7 333.499C374.7 361.099 375 365.8 375.9 366.8C376.801 367.7 381.001 367.999 390.3 367.999C399.399 367.999 403.7 367.6 404.5 366.8C405.4 365.9 405.7 360.599 405.7 348.999V332.499C413.8 330.3 419.6 328 423.7 325.9C428.6 323.5 434 319.6 439.1 314.8C445 309.3 447.7 305.799 450.3 300.499C452.4 296.399 454.4 289.999 455.3 284.999C456.3 279.4 456.7 273.7 456.3 268.3C456 263.7 454.8 257.2 453.6 253.8C452.5 250.3 450.1 245.3 448.4 242.6C446.6 239.9 442.5 235.2 439.2 232.2C435.6 229 429.6 225.099 424.2 222.499C419.2 220.099 407.3 215.799 397.7 212.999C388.1 210.1 377.5 206.5 374.2 204.8C370.9 203.2 367.1 200.9 365.8 199.7C364.5 198.5 362.6 195.699 361.6 193.499C360.4 190.999 359.7 187.199 359.7 183.499C359.7 179.8 360.4 175.999 361.6 173.499C362.6 171.3 364.7 168.3 366.3 166.8C367.9 165.3 371.4 163.1 374.2 161.8C378.4 159.9 380.9 159.499 389.7 159.499C399.4 159.499 400.7 159.7 406.7 162.6C410.3 164.3 414.9 167.5 417 169.6C419.1 171.8 422.2 175.6 423.8 178.3C425.4 180.9 427.2 182.999 427.7 182.999C428.201 182.999 434.001 179.899 440.4 175.999C446.9 172.2 452.8 169.099 453.4 168.999C454.1 168.999 454.7 168.4 454.7 167.8C454.7 167.1 453 163.599 451 159.999C448.9 156.499 444.3 150.599 440.7 146.999C437.1 143.4 431.2 138.8 427.7 136.7C424.1 134.7 417.7 131.9 413.4 130.499L405.7 127.999C405.7 99.9999 405.4 95.1997 404.5 94.1997C403.6 93.2998 399.299 92.9995 389.6 92.9995ZM294.6 106.999C271.101 107.099 265.9 107.5 262.7 108.7C260.2 109.6 256.6 111.3 254.7 112.499C252.8 113.699 249.7 116.4 247.8 118.6C245.9 120.7 243.2 125 241.8 127.999L239.2 133.499C238.2 206.998 238.1 208.6 236.1 211.999C234.9 213.899 232.4 216.5 230.6 217.7C228.7 218.9 224.7 220.2 221.7 220.6C218.7 221 215.4 221.7 214.5 222.1C212.9 222.9 212.7 224.5 213 235.7L213.001 235.749C213.2 248.3 213.203 248.501 215.7 249.2C217.1 249.6 220.2 250.199 222.7 250.499C225.2 250.7 228.7 252 230.6 253.2C232.499 254.5 234.999 257.1 236.1 258.999C238.1 262.299 238.2 264.4 238.7 300.499L239.2 338.499C243.1 346.999 246.3 351.7 248.7 354.3C251.2 357 255.7 360.4 258.7 361.8C263.8 364.3 265.2 364.5 279.5 364.8L294.7 364.999V336.999C281.5 336.999 278.2 336.5 275.8 335.2C273.9 334.3 271.4 332.2 270.3 330.7C268.3 328 268.2 326.299 267.7 292.7L267.2 257.499C263.1 249 260.1 244.899 258 242.999C255.9 241.1 252.8 238.5 251.2 237.2L248.2 234.999C252.8 231.5 255.9 228.899 258 226.999C260.1 225.099 263.1 220.999 264.5 217.999L267.2 212.499C268.2 150.002 268.5 145 270 141.8C271 139.5 273 137.3 274.9 136.3C276.701 135.4 281.8 134.4 286.2 134.1L294.2 133.499L294.6 106.999ZM485.6 106.999L485.9 120.3L486.2 133.499C498.6 134.399 503.6 135.4 505.2 136.2C507.1 137.1 508.9 139.3 510 141.9C511.5 145.5 511.7 149.7 511.7 176.3C511.7 201.399 512 207.4 513.3 211.999C514.2 214.999 516 219.099 517.2 220.999C518.4 222.899 521.2 226.099 523.3 227.999C525.5 229.899 528.3 232.3 529.7 233.3L532.2 234.999C528.3 237.699 525.5 240.1 523.3 241.999C521.2 243.899 518.3 247.2 517.1 249.3C515.8 251.3 514 255.6 513.2 258.8C512 263.3 511.7 271.1 511.7 295.499C511.7 322.998 511.5 326.9 509.9 329.999C508.9 331.999 506.7 334.2 504.7 335.2C502.3 336.5 498.8 336.999 493.5 336.999H485.7L486.2 364.499C515.1 364.499 515.3 364.5 522 361.3C526.466 359.1 529.833 356.6 532.1 353.8C533.9 351.4 536.2 347.899 537.2 345.999C538.2 344.099 539.5 341.099 540 339.499C540.6 337.797 541.3 320.598 541.6 298.8C542.2 262.602 542.3 261 544.3 258.3C545.4 256.8 547.9 254.5 549.8 253.2C551.7 252 555.2 250.7 557.7 250.4C560.2 250.1 563.2 249.5 564.5 248.9C566.6 248 566.7 247.499 566.7 235.499C566.7 223.5 566.6 223 564.5 222.1C563.2 221.5 560.2 220.9 557.7 220.6C555.2 220.3 551.7 219 549.8 217.8C547.9 216.5 545.4 214.2 544.3 212.7C542.3 210 542.2 208.398 541.6 172.7C541.3 148.8 540.6 134.199 539.9 131.999C539.3 130.099 537.3 125.999 535.5 122.999C533.7 120 530 115.9 527.2 113.8C524.5 111.7 520 109.299 517.2 108.499C513.8 107.5 507.8 107 498.9 106.999H485.6Z" fill="#31946D"/>
</svg>
